<svg xmlns="http://www.w3.org/2000/svg" width="62" height="43" viewBox="0 0 62 43"><defs><clipPath id="clip-path"><path fill="none" d="M0 0h62.916v43.082H0z"/></clipPath></defs><style>.path{fill:#4dbbaa}</style><g id="logo" transform="translate(0 .001)" clip-path="url(#clip-path)"><path class="path" id="path01" data-name="path01" d="M403.849 166.685a1.8 1.8 0 00-1.632-1.039h-9.88l-3.022 3.6h9.042l-19.057 22.72h-27.483l6.508-7.757h-4.7l-7.047 8.4a1.8 1.8 0 001.379 2.958h32.182a1.8 1.8 0 001.379-.643L403.6 168.6a1.8 1.8 0 00.249-1.915z" transform="translate(-341.102 -152.485)"/><path class="path" id="path02" data-name="path02" d="M367.2 157.648l22.084-26.321a1.8 1.8 0 00-1.379-2.958h-32.187a1.8 1.8 0 00-1.38.644l-22.076 26.321a1.8 1.8 0 001.38 2.957h32.182a1.8 1.8 0 001.376-.643zm-29.7-2.958l19.056-22.72h27.488l-8.02 9.559h-15.25a1.8 1.8 0 00-1.38.643l-10.5 12.517zm16.093 0l8.019-9.559H373l-8.02 9.559z" transform="translate(-331.841 -128.368)"/></g></svg>
